<svg width="80" height="80" viewBox="0 0 80 80" fill="none" xmlns="http://www.w3.org/2000/svg">
<path fill-rule="evenodd" clip-rule="evenodd" d="M48.4155 62.4059C69.0921 54.7067 82.075 38.3458 77.4769 25.9849C84.1186 43.7894 77.1763 63.3984 61.9094 73.4134C55.3277 71.5187 50.4291 67.7292 48.4155 62.4059Z" fill="url(#paint0_linear_3603_46396)"/>
<path fill-rule="evenodd" clip-rule="evenodd" d="M48.4155 62.4059C69.0921 54.7067 82.075 38.3458 77.4769 25.9849C72.1274 27.9698 67.2889 30.5262 63.1415 33.5037C66.4774 45.3533 60.2264 57.9849 48.4155 62.4059Z" fill="url(#paint1_linear_3603_46396)"/>
<path fill-rule="evenodd" clip-rule="evenodd" d="M62.4805 31.5187C54.847 10.8871 38.4981 -2.10538 26.0562 2.55627C43.9077 -4.12042 63.5023 2.79687 73.4499 18.0149C71.5866 24.6315 67.7999 29.5337 62.4805 31.5187Z" fill="url(#paint2_linear_3603_46396)"/>
<path fill-rule="evenodd" clip-rule="evenodd" d="M62.4805 31.5187C54.847 10.8871 38.4981 -2.10536 26.0562 2.55629C28.0397 7.90967 30.7144 12.7819 33.5694 16.9022C45.5005 13.5337 58.1829 19.8495 62.4805 31.5187Z" fill="url(#paint3_linear_3603_46396)"/>
<path fill-rule="evenodd" clip-rule="evenodd" d="M31.6759 17.5338C11.0595 25.2932 -1.98353 41.594 2.64464 54.0451C-4.02714 36.1805 2.88507 16.5714 18.1821 6.5564C24.8238 8.48121 29.6924 12.1805 31.6759 17.5338Z" fill="url(#paint4_linear_3603_46396)"/>
<path fill-rule="evenodd" clip-rule="evenodd" d="M31.6759 17.5339C11.0595 25.2933 -1.98359 41.5941 2.64459 54.0452C7.99404 52.0603 12.8326 49.5039 16.9799 46.5264C13.6741 34.6467 19.9251 22.0151 31.6759 17.5339Z" fill="url(#paint5_linear_3603_46396)"/>
<path fill-rule="evenodd" clip-rule="evenodd" d="M17.6411 48.3909C25.3347 69.0826 41.6835 82.0751 54.0654 77.3533C36.2139 84.03 16.6794 77.1728 6.61157 61.8044C8.56502 55.3683 12.2916 50.4059 17.6411 48.3909Z" fill="url(#paint6_linear_3603_46396)"/>
<path fill-rule="evenodd" clip-rule="evenodd" d="M17.6411 48.3909C25.3347 69.0826 41.6836 82.0751 54.0655 77.3533C52.082 71.9999 49.4373 67.2179 46.5522 63.0074C34.6211 66.4059 21.9688 60.1503 17.6411 48.3909Z" fill="url(#paint7_linear_3603_46396)"/>
<path fill-rule="evenodd" clip-rule="evenodd" d="M41.804 57.9247C58.3031 56.2405 70.8653 46.9773 69.9337 37.0225C65.6661 37.4435 61.639 38.4059 58.0326 39.7593C58.1829 49.0525 51.1505 56.9924 41.804 57.9247Z" fill="url(#paint8_linear_3603_46396)"/>
<path fill-rule="evenodd" clip-rule="evenodd" d="M57.9425 38.1954C56.4398 21.7743 47.1234 9.14275 37.1758 10.0751C37.6266 14.4059 38.5582 18.3758 39.9106 21.9849C49.1069 21.8646 57.101 28.8119 57.9425 38.1954Z" fill="url(#paint9_linear_3603_46396)"/>
<path fill-rule="evenodd" clip-rule="evenodd" d="M38.3478 22.0752C21.8186 23.6692 9.2564 32.9624 10.188 42.9173C14.4556 42.4963 18.4827 41.5338 22.1191 40.2406C21.9689 30.9474 29.0013 22.9775 38.3478 22.0752Z" fill="url(#paint10_linear_3603_46396)"/>
<path fill-rule="evenodd" clip-rule="evenodd" d="M22.1492 41.7144C23.7119 58.1956 33.0284 70.8572 42.9159 69.8347C42.4951 65.564 41.5935 61.594 40.2411 58.0151C30.9848 58.0753 23.0207 51.1279 22.1492 41.7144Z" fill="url(#paint11_linear_3603_46396)"/>
<defs>
<linearGradient id="paint0_linear_3603_46396" x1="73.4782" y1="24.6998" x2="58.4282" y2="72.4581" gradientUnits="userSpaceOnUse">
<stop stop-color="#C6E9F4"/>
<stop offset="1" stop-color="#0AB4DC"/>
</linearGradient>
<linearGradient id="paint1_linear_3603_46396" x1="48.9328" y1="62.5979" x2="78.7518" y2="26.4242" gradientUnits="userSpaceOnUse">
<stop stop-color="#0FB2E8"/>
<stop offset="1" stop-color="#0A525F"/>
</linearGradient>
<linearGradient id="paint2_linear_3603_46396" x1="24.3449" y1="5.68772" x2="71.8115" y2="21.5389" gradientUnits="userSpaceOnUse">
<stop stop-color="#F6EB16"/>
<stop offset="1" stop-color="#60B346"/>
</linearGradient>
<linearGradient id="paint3_linear_3603_46396" x1="63.5666" y1="31.1482" x2="26.8617" y2="1.99522" gradientUnits="userSpaceOnUse">
<stop stop-color="#CADB2B"/>
<stop offset="1" stop-color="#2A3A1A"/>
</linearGradient>
<linearGradient id="paint4_linear_3603_46396" x1="5.85389" y1="55.574" x2="21.7353" y2="8.08656" gradientUnits="userSpaceOnUse">
<stop stop-color="#F6EB16"/>
<stop offset="1" stop-color="#F15E22"/>
</linearGradient>
<linearGradient id="paint5_linear_3603_46396" x1="30.9943" y1="16.7785" x2="1.81169" y2="53.4668" gradientUnits="userSpaceOnUse">
<stop stop-color="#F57F20"/>
<stop offset="1" stop-color="#BF2025"/>
</linearGradient>
<linearGradient id="paint6_linear_3603_46396" x1="55.1405" y1="73.4238" x2="7.40469" y2="58.4031" gradientUnits="userSpaceOnUse">
<stop stop-color="#E9B9D6"/>
<stop offset="1" stop-color="#8F6BAE"/>
</linearGradient>
<linearGradient id="paint7_linear_3603_46396" x1="17.5165" y1="48.9414" x2="53.7071" y2="78.7305" gradientUnits="userSpaceOnUse">
<stop stop-color="#8F6BAE"/>
<stop offset="1" stop-color="#30266F"/>
</linearGradient>
<linearGradient id="paint8_linear_3603_46396" x1="41.5203" y1="58.5119" x2="70.2061" y2="38.0497" gradientUnits="userSpaceOnUse">
<stop stop-color="#C6E9F4"/>
<stop offset="1" stop-color="#0AB4DC"/>
</linearGradient>
<linearGradient id="paint9_linear_3603_46396" x1="58.5588" y1="37.7347" x2="37.5746" y2="9.4187" gradientUnits="userSpaceOnUse">
<stop stop-color="#F6EB16"/>
<stop offset="1" stop-color="#60B346"/>
</linearGradient>
<linearGradient id="paint10_linear_3603_46396" x1="37.6457" y1="21.6488" x2="9.32147" y2="42.6084" gradientUnits="userSpaceOnUse">
<stop stop-color="#F6EB16"/>
<stop offset="1" stop-color="#F15E22"/>
</linearGradient>
<linearGradient id="paint11_linear_3603_46396" x1="21.6343" y1="41.6972" x2="42.1213" y2="70.3756" gradientUnits="userSpaceOnUse">
<stop stop-color="#E9B9D6"/>
<stop offset="1" stop-color="#8F6BAE"/>
</linearGradient>
</defs>
</svg>
